#!OML:ASF Y:\EmotionMaleHayes\Project 1\Capture day 1\Session 1\Male1.ASF
:FULLY-SPECIFIED
:DEGREES
1729
root 9.96038 16.801 3.90093 898.446 33.3723 905.369
lowerback 7.69124 5.5546 5.09138
upperback 6.84829 8.20607 1.22252
thorax 3.36829 4.52195 -1.87419
lowerneck -3.4488 18.4001 24.0286
upperneck 17.8004 31.052 -21.653
head 14.0391 14.883 -6.01591
rclavicle 2.95692e-015 3.44891e-014
rhumerus -50.3527 29.9701 -110.913
rradius 121.34
rwrist -7.57769
rhand -35.4679 -15.3006
rfingers 7.12502
rthumb -8.59632 -45.1056
lclavicle 2.95692e-015 3.44891e-014
lhumerus -46.244 -54.0686 117.423
lradius 108.591
lwrist 36.608
lhand -15.705 -35.7405
lfingers 7.12502
lthumb 10.4847 -6.02193
rfemur 5.51569 -15.3765 27.4402
rtibia 15.5103
rfoot -26.7146 -22.5772
rtoes 5.94502
lfemur -16.6628 -21.5306 -8.01831
ltibia 23.9736
lfoot 0.611235 -17.8289
ltoes -8.89406
1730
root 9.96321 16.7996 3.89711 898.456 33.3052 905.379
lowerback 7.67207 5.55538 5.12527
upperback 6.88438 8.21179 1.19162
thorax 3.42717 4.53055 -1.91812
lowerneck -3.78433 18.4676 23.9124
upperneck 17.9536 30.9989 -21.3936
head 14.0698 14.8262 -5.89096
rclavicle 6.74625e-014 1.54058e-014
rhumerus -50.2504 29.8722 -110.849
rradius 121.311
rwrist -7.52634
rhand -35.3278 -15.3165
rfingers 7.12502
rthumb -8.46116 -45.127
lclavicle 6.74625e-014 1.54058e-014
lhumerus -46.1412 -54.1859 117.291
lradius 108.659
lwrist 36.7826
lhand -15.5644 -35.5285
lfingers 7.12502
lthumb 10.6204 -5.81685
rfemur 5.54958 -15.4001 27.4567
rtibia 15.468
rfoot -26.7756 -22.6195
rtoes 6.17799
lfemur -16.7021 -21.562 -8.01558
ltibia 24.0373
lfoot 0.625976 -17.8334
ltoes -8.51753
1731
root 9.96506 16.7993 3.89196 898.477 33.2454 905.412
lowerback 7.66155 5.55148 5.25318
upperback 6.90565 8.21626 1.10223
thorax 3.48866 4.54312 -2.07364
lowerneck -3.94848 18.4804 24.1436
upperneck 17.9252 30.9414 -21.47
head 14.1366 14.7881 -5.94341
rclavicle 3.91109e-014 2.83268e-014
rhumerus -50.0885 29.7336 -110.749
rradius 121.323
rwrist -7.41212
rhand -35.1446 -15.4727
rfingers 7.12502
rthumb -8.28428 -45.2903
lclavicle 3.91109e-014 2.83268e-014
lhumerus -45.9801 -54.3607 116.906
lradius 108.804
lwrist 36.8822
lhand -15.4283 -35.125
lfingers 7.12502
lthumb 10.7517 -5.42012
rfemur 5.57398 -15.5298 27.4458
rtibia 15.4838
rfoot -26.8724 -22.495
rtoes 6.4084
lfemur -16.738 -21.6014 -8.01068
ltibia 24.1254
lfoot 0.567847 -17.8499
ltoes -8.60944
1732
root 9.96705 16.8 3.88809 898.491 33.2387 905.426
lowerback 7.64599 5.52255 5.26534
upperback 6.92785 8.17941 1.07989
thorax 3.52295 4.52782 -2.09824
lowerneck -4.05997 18.5292 24.0486
upperneck 17.8338 30.9267 -21.4446
head 14.0924 14.7639 -5.9141
rclavicle 8.75149e-014 -1.96797e-014
rhumerus -50.1041 29.8983 -110.73
rradius 121.354
rwrist -7.44735
rhand -35.448 -15.5954
rfingers 7.12502
rthumb -8.57716 -45.4012
lclavicle 8.75149e-014 -1.96797e-014
lhumerus -45.729 -54.3163 116.661
lradius 108.761
lwrist 36.7623
lhand -15.7258 -34.9722
lfingers 7.12502
lthumb 10.4647 -5.25268
rfemur 5.59414 -15.461 27.4848
rtibia 15.4254
rfoot -26.8803 -22.5587
rtoes 6.35571
lfemur -16.754 -21.5505 -8.00738
ltibia 24.1664
lfoot 0.517653 -17.924
ltoes -9.19378
1733
root 9.96954 16.8013 3.88428 898.506 33.2291 905.453
lowerback 7.64929 5.49887 5.25038
upperback 6.91779 8.14625 1.0792
thorax 3.50568 4.50962 -2.09168
lowerneck -4.06526 18.5285 24.064
upperneck 17.7237 30.8747 -21.4841
head 14.0461 14.7385 -5.94388
rclavicle 3.56943e-014 1.68967e-015
rhumerus -50.2413 30.1367 -110.864
rradius 121.318
rwrist -7.82152
rhand -36.0182 -15.3484
rfingers 7.12502
rthumb -9.1274 -45.1309
lclavicle 3.56943e-014 1.68967e-015
lhumerus -45.6862 -54.2119 116.713
lradius 108.623
lwrist 36.8051
lhand -16.1017 -35.1019
lfingers 7.12502
lthumb 10.1021 -5.36436
rfemur 5.66282 -15.2842 27.5751
rtibia 15.259
rfoot -26.8098 -22.7406
rtoes 6.50772
lfemur -16.7399 -21.5449 -7.99411
ltibia 24.1656
lfoot 0.42921 -17.9601
ltoes -9.79727
1734
root 9.9721 16.8021 3.87979 898.504 33.1967 905.47
lowerback 7.69425 5.50236 5.28414
upperback 6.89316 8.15481 1.03628
thorax 3.46717 4.51454 -2.16098
lowerneck -4.13919 18.5528 23.9466
upperneck 17.6693 30.7946 -21.3293
head 13.9572 14.6944 -5.89074
rclavicle -5.04913e-014 -3.97569e-016
rhumerus -50.293 30.1988 -111.009
rradius 121.226
rwrist -8.10444
rhand -36.5644 -15.1127
rfingers 7.12502
rthumb -9.65435 -44.8714
lclavicle -5.04913e-014 -3.97569e-016
lhumerus -45.8174 -54.2412 116.825
lradius 108.549
lwrist 36.7928
lhand -16.1202 -35.1795
lfingers 7.12502
lthumb 10.0842 -5.44115
rfemur 5.68905 -15.2824 27.5901
rtibia 15.2499
rfoot -26.7272 -22.7623
rtoes 6.91391
lfemur -16.7056 -21.5998 -8.00184
ltibia 24.161
lfoot 0.335641 -17.9649
ltoes -9.86931
1735
root 9.97288 16.8012 3.87554 898.513 33.1832 905.492
lowerback 7.71899 5.5202 5.33613
upperback 6.91208 8.18598 1.02541
thorax 3.48551 4.53478 -2.2016
lowerneck -4.27297 18.5386 24.1075
upperneck 17.6428 30.7428 -21.4541
head 14.0189 14.6605 -5.95514
rclavicle -1.35795e-014 1.1281e-014
rhumerus -50.2786 30.2296 -111.007
rradius 121.178
rwrist -8.14484
rhand -37.0587 -15.1517
rfingers 7.12502
rthumb -10.1313 -44.8878
lclavicle -1.35795e-014 1.1281e-014
lhumerus -45.8968 -54.3038 116.897
lradius 108.566
lwrist 36.5968
lhand -16.043 -35.0325
lfingers 7.12502
lthumb 10.1586 -5.29772
rfemur 5.60556 -15.3762 27.5773
rtibia 15.4402
rfoot -26.727 -22.7472
rtoes 7.05333
lfemur -16.697 -21.5839 -7.99172
ltibia 24.1717
lfoot 0.349113 -18.0027
ltoes -9.69159
1736
root 9.97205 16.7991 3.87159 898.54 33.1854 905.53
lowerback 7.70186 5.51526 5.38392
upperback 6.96164 8.18541 1.0647
thorax 3.54835 4.54032 -2.18061
lowerneck -4.45726 18.6013 23.745
upperneck 17.6086 30.72 -21.2659
head 13.9229 14.622 -5.83354
rclavicle 2.48357e-014 6.36111e-015
rhumerus -50.3006 30.3055 -110.956
rradius 121.234
rwrist -8.22601
rhand -37.0626 -15.1284
rfingers 7.12502
rthumb -10.1351 -44.8643
lclavicle 2.48357e-014 6.36111e-015
lhumerus -45.8627 -54.2592 116.858
lradius 108.631
lwrist 36.6451
lhand -15.8482 -34.9801
lfingers 7.12502
lthumb 10.3466 -5.25461
rfemur 5.51595 -15.5025 27.5606
rtibia 15.6448
rfoot -26.8175 -22.6689
rtoes 6.92148
lfemur -16.7128 -21.5406 -7.96113
ltibia 24.1961
lfoot 0.418155 -18.0141
ltoes -9.58374
1737
root 9.97096 16.7979 3.86727 898.518 33.208 905.467
lowerback 7.69403 5.50847 5.37343
upperback 6.98788 8.17755 1.03884
thorax 3.5822 4.53887 -2.19795
lowerneck -4.50684 18.6058 23.9135
upperneck 17.5401 30.7497 -21.475
head 13.9937 14.6288 -5.91171
rclavicle 5.35849e-014 7.20594e-015
rhumerus -50.3376 30.3115 -111.051
rradius 121.298
rwrist -8.22611
rhand -36.8484 -15.0836
rfingers 7.12502
rthumb -9.92836 -44.8294
lclavicle 5.35849e-014 7.20594e-015
lhumerus -45.9184 -54.2297 116.785
lradius 108.7
lwrist 36.7443
lhand -15.6952 -35.2573
lfingers 7.12502
lthumb 10.4941 -5.53925
rfemur 5.50955 -15.4368 27.5106
rtibia 15.6542
rfoot -26.8861 -22.6682
rtoes 6.88908
lfemur -16.7089 -21.5705 -8.04256
ltibia 24.1977
lfoot 0.438186 -17.9339
ltoes -9.3741
1738
root 9.97004 16.7974 3.86136 898.382 33.2323 905.231
lowerback 7.72922 5.50949 5.23073
upperback 6.97652 8.17253 0.953905
thorax 3.54223 4.53058 -2.21375
lowerneck -4.45582 18.6307 24.0203
upperneck 17.5373 30.8032 -21.5044
head 14.0231 14.6589 -5.92204
rclavicle -2.13569e-014 -5.36719e-015
rhumerus -50.3375 30.2677 -111.211
rradius 121.233
rwrist -8.00395
rhand -36.803 -15.2752
rfingers 7.12502
rthumb -9.88461 -45.0232
lclavicle -2.13569e-014 -5.36719e-015
lhumerus -46.1664 -54.2053 116.832
lradius 108.801
lwrist 36.6797
lhand -15.4775 -35.2173
lfingers 7.12502
lthumb 10.7042 -5.50994
rfemur 5.58135 -15.2265 27.3334
rtibia 15.56
rfoot -26.9365 -22.7863
rtoes 6.89446
lfemur -16.6484 -21.6246 -8.32651
ltibia 24.1702
lfoot 0.430372 -17.858
ltoes -9.25664
1739
root 9.9701 16.7973 3.85623 898.224 33.2384 904.987
lowerback 7.76967 5.49144 5.00007
upperback 6.98284 8.13844 0.945903
thorax 3.49086 4.50323 -2.1031
lowerneck -4.34041 18.6422 23.9145
upperneck 17.4495 30.8673 -21.5639
head 13.9759 14.6927 -5.92252
rclavicle 2.44505e-014 2.94201e-014
rhumerus -50.3113 30.437 -111.211
rradius 121.094
rwrist -7.84535
rhand -36.7733 -15.5245
rfingers 7.12502
rthumb -9.85596 -45.2739
lclavicle 2.44505e-014 2.94201e-014
lhumerus -46.2333 -54.0905 116.891
lradius 108.83
lwrist 36.6421
lhand -15.306 -35.0971
lfingers 7.12502
lthumb 10.8696 -5.39839
rfemur 5.59516 -15.338 27.0054
rtibia 15.6768
rfoot -26.9792 -22.6416
rtoes 6.82964
lfemur -16.5709 -21.6233 -8.61667
ltibia 24.1482
lfoot 0.454502 -17.866
ltoes -9.02156
1740
root 9.97316 16.7979 3.85309 898.225 33.2701 904.965
lowerback 7.75378 5.47864 4.92086
upperback 7.02341 8.11898 0.994856
thorax 3.52179 4.49196 -2.00545
lowerneck -4.3925 18.6754 23.7922
upperneck 17.3846 30.9474 -21.6724
head 13.9844 14.7142 -5.91619
rclavicle 1.00784e-013 5.56597e-015
rhumerus -50.2445 30.7114 -111.093
rradius 121.067
rwrist -8.13582
rhand -36.7747 -15.4554
rfingers 7.12502
rthumb -9.85728 -45.2047
lclavicle 1.00784e-013 5.56597e-015
lhumerus -46.0029 -54.0327 116.809
lradius 108.774
lwrist 36.6533
lhand -15.6455 -35.2757
lfingers 7.12502
lthumb 10.5421 -5.56011
rfemur 5.52986 -15.4365 26.9363
rtibia 15.8219
rfoot -26.9902 -22.534
rtoes 6.78747
lfemur -16.5674 -21.6399 -8.62223
ltibia 24.2085
lfoot 0.362013 -17.8457
ltoes -8.65039
1741
root 9.97815 16.7976 3.84768 898.373 33.2517 905.187
lowerback 7.72243 5.47333 5.10918
upperback 7.02547 8.12045 1.04369
thorax 3.56164 4.50062 -2.0519
lowerneck -4.39496 18.7158 23.731
upperneck 17.3182 30.9954 -21.6846
head 13.9614 14.7306 -5.8968
rclavicle 1.6524e-014 2.95195e-014
rhumerus -50.1844 30.7345 -111.053
rradius 121.09
rwrist -8.40263
rhand -36.7888 -15.3454
rfingers 7.12502
rthumb -9.87093 -45.094
lclavicle 1.6524e-014 2.95195e-014
lhumerus -45.7774 -54.057 116.741
lradius 108.743
lwrist 36.6753
lhand -16.0028 -35.0984
lfingers 7.12502
lthumb 10.1975 -5.3656
rfemur 5.45321 -15.5177 27.1513
rtibia 15.9455
rfoot -27.0097 -22.5226
rtoes 6.58457
lfemur -16.6143 -21.769 -8.39733
ltibia 24.3025
lfoot 0.0469243 -17.7544
ltoes -8.91399
